<svg width="17" height="18" viewBox="0 0 17 18" fill="none" xmlns="http://www.w3.org/2000/svg">
<path d="M1 9C1 5.46446 1 3.6967 2.09835 2.59835C3.1967 1.5 4.96446 1.5 8.5 1.5C12.0355 1.5 13.8033 1.5 14.9016 2.59835C16 3.6967 16 5.46446 16 9" stroke="#FFCD00" stroke-width="2"/>
<path d="M1 10.5C1 8.39978 1 7.34971 1.40873 6.54754C1.76825 5.84193 2.34193 5.26825 3.04754 4.90873C3.84971 4.5 4.8998 4.5 7 4.5H10C12.1002 4.5 13.1503 4.5 13.9525 4.90873C14.6581 5.26825 15.2318 5.84193 15.5912 6.54754C16 7.34971 16 8.39978 16 10.5C16 12.6002 16 13.6503 15.5912 14.4525C15.2318 15.1581 14.6581 15.7318 13.9525 16.0912C13.1503 16.5 12.1002 16.5 10 16.5H7C4.8998 16.5 3.84971 16.5 3.04754 16.0912C2.34193 15.7318 1.76825 15.1581 1.40873 14.4525C1 13.6503 1 12.6002 1 10.5Z" stroke="#FFCD00" stroke-width="2"/>
<path d="M6.625 10.8L7.69645 12L10.375 9" stroke="#FFCD00" stroke-width="4" stroke-linecap="round" stroke-linejoin="round"/>
</svg>
