<svg width="17" height="17" viewBox="0 0 17 17" fill="none" xmlns="http://www.w3.org/2000/svg">
<path d="M11.8333 6.73059L9.44165 9.28051C9.3229 9.41251 9.17765 9.5181 9.0154 9.59035C8.85324 9.6626 8.67757 9.70001 8.49999 9.70001C8.3224 9.70001 8.14674 9.6626 7.98457 9.59035C7.82232 9.5181 7.67707 9.41251 7.55832 9.28051L5.16665 6.73059" stroke="#FFCD00" stroke-width="2" stroke-linecap="round" stroke-linejoin="round"/>
<path d="M1 4.33334V12.6667C1 14.5077 2.49238 16 4.33333 16H12.6667C14.5076 16 16 14.5077 16 12.6667V4.33334C16 2.49238 14.5076 1 12.6667 1H4.33333C2.49238 1 1 2.49238 1 4.33334Z" stroke="#FFCD00" stroke-width="2" stroke-linecap="round" stroke-linejoin="round"/>
</svg>
