<svg width="21" height="16" viewBox="0 0 21 16" fill="none" xmlns="http://www.w3.org/2000/svg">
<path d="M10.0154 16V13.7333L15.9134 8.08L18.2782 10.3467L12.3802 16H10.0154ZM0 10.6667V8.53333H7.78979V10.6667H0ZM19.0572 9.6L16.6924 7.33333L17.4992 6.56C17.7032 6.36444 17.9629 6.26667 18.2782 6.26667C18.5935 6.26667 18.8532 6.36444 19.0572 6.56L19.864 7.33333C20.068 7.52889 20.17 7.77778 20.17 8.08C20.17 8.38222 20.068 8.63111 19.864 8.82667L19.0572 9.6ZM0 6.4V4.26667H12.2411V6.4H0ZM0 2.13333V0H12.2411V2.13333H0Z" fill="#FFCD00"/>
</svg>
