<svg width="18" height="17" viewBox="0 0 18 17" fill="none" xmlns="http://www.w3.org/2000/svg">
<path d="M1.3316 8.5C1.3316 4.96446 1.3316 3.1967 2.42996 2.09835C3.5283 1 5.29607 1 8.8316 1C12.3671 1 14.1349 1 15.2332 2.09835C16.3316 3.1967 16.3316 4.96446 16.3316 8.5" stroke="#FFCD00" stroke-width="2"/>
<path d="M1.3316 10C1.3316 7.89978 1.3316 6.84971 1.74033 6.04754C2.09985 5.34193 2.67353 4.76825 3.37914 4.40873C4.18131 4 5.23141 4 7.3316 4H10.3316C12.4318 4 13.4819 4 14.2841 4.40873C14.9897 4.76825 15.5634 5.34193 15.9229 6.04754C16.3316 6.84971 16.3316 7.89978 16.3316 10C16.3316 12.1002 16.3316 13.1503 15.9229 13.9525C15.5634 14.6581 14.9897 15.2318 14.2841 15.5912C13.4819 16 12.4318 16 10.3316 16H7.3316C5.23141 16 4.18131 16 3.37914 15.5912C2.67353 15.2318 2.09985 14.6581 1.74033 13.9525C1.3316 13.1503 1.3316 12.1002 1.3316 10Z" stroke="#FFCD00" stroke-width="2"/>
</svg>
