<svg width="17" height="17" viewBox="0 0 17 17" fill="none" xmlns="http://www.w3.org/2000/svg">
<path d="M5.16666 9.70001L7.55832 7.15009C7.67707 7.01809 7.82232 6.91251 7.98457 6.84026C8.14674 6.76801 8.32241 6.73059 8.49999 6.73059C8.67757 6.73059 8.85324 6.76801 9.01541 6.84026C9.17766 6.91251 9.32291 7.01809 9.44166 7.15009L11.8333 9.70001" stroke="#FFCD00" stroke-width="2" stroke-linecap="round" stroke-linejoin="round"/>
<path d="M1 4.33334V12.6667C1 14.5077 2.49238 16 4.33333 16H12.6667C14.5076 16 16 14.5077 16 12.6667V4.33334C16 2.49238 14.5076 1 12.6667 1H4.33333C2.49238 1 1 2.49238 1 4.33334Z" stroke="#FFCD00" stroke-width="2" stroke-linecap="round" stroke-linejoin="round"/>
</svg>
